<svg width="161" height="161" viewBox="0 0 161 161" fill="none" xmlns="http://www.w3.org/2000/svg">
<g clip-path="url(#clip0_477_49)">
<path d="M80.5 0C36.225 0 0 36.225 0 80.5C0 124.775 36.225 161 80.5 161C124.775 161 161 124.775 161 80.5C161 36.225 124.775 0 80.5 0ZM80.5 148.925C42.665 148.925 12.075 118.335 12.075 80.5C12.075 42.665 42.665 12.075 80.5 12.075C118.335 12.075 148.925 42.665 148.925 80.5C148.925 118.335 118.335 148.925 80.5 148.925ZM122.36 57.96C122.36 59.57 121.555 61.18 120.75 61.985L75.67 107.065C74.865 107.87 73.255 108.675 71.645 108.675C70.035 108.675 68.425 107.87 67.62 107.065L41.86 81.305C39.445 80.5 38.64 78.89 38.64 77.28C38.64 74.06 41.055 70.84 45.08 70.84C46.69 71.645 48.3 72.45 49.105 73.255L70.84 94.99L111.895 53.935C112.7 53.13 114.31 52.325 115.92 52.325C119.14 51.52 122.36 54.74 122.36 57.96Z" fill="#3BB54A"/>
</g>
<defs>
<clipPath id="clip0_477_49">
<rect width="161" height="161" fill="white"/>
</clipPath>
</defs>
</svg>
